<svg xmlns="http://www.w3.org/2000/svg" width="24" height="25" fill="none" viewBox="0 0 24 25">
  <path stroke="#667A8B" stroke-linecap="round" stroke-linejoin="round" stroke-width="1.5" d="M2 2.333h1.306c.246 0 .37 0 .468.046a.5.5 0 0 1 .213.184c.059.092.076.214.111.457l.473 3.313m0 0 1.052 7.732c.134.981.2 1.472.435 1.84a2 2 0 0 0 .853.746c.398.183.893.183 1.883.183h8.558c.942 0 1.414 0 1.799-.17a2 2 0 0 0 .841-.696c.239-.347.327-.81.503-1.736l1.324-6.949c.062-.326.093-.489.048-.616a.5.5 0 0 0-.22-.265c-.116-.069-.282-.069-.614-.069H4.571Zm5.429 15a1 1 0 1 1-2 0 1 1 0 0 1 2 0Zm8 0a1 1 0 1 1-2 0 1 1 0 0 1 2 0Z"/>
</svg>
