<svg width="27" height="26" viewBox="0 0 27 26" fill="none" xmlns="http://www.w3.org/2000/svg">
<path d="M6.61025 12.1003C6.53774 11.633 6.50012 11.1542 6.50012 10.6667C6.50012 5.51205 10.7063 1.33337 15.8949 1.33337C21.0834 1.33337 25.2896 5.51205 25.2896 10.6667C25.2896 11.8311 25.075 12.9457 24.6828 13.9736C24.6014 14.1871 24.5607 14.2938 24.5422 14.3772C24.5239 14.4598 24.5168 14.5178 24.5148 14.6024C24.5128 14.6877 24.5244 14.7817 24.5475 14.9697L25.0172 18.785C25.068 19.198 25.0935 19.4045 25.0248 19.5546C24.9646 19.6862 24.8577 19.7907 24.7248 19.8478C24.5731 19.913 24.3672 19.8828 23.9555 19.8225L20.2394 19.2778C20.0453 19.2493 19.9483 19.2351 19.8599 19.2356C19.7725 19.2361 19.712 19.2426 19.6265 19.2605C19.54 19.2787 19.4296 19.3201 19.2086 19.4029C18.1781 19.7888 17.0613 20 15.8949 20C15.407 20 14.9278 19.9631 14.4599 19.8919M8.40367 24.6667C11.8627 24.6667 14.6668 21.7939 14.6668 18.25C14.6668 14.7062 11.8627 11.8334 8.40367 11.8334C4.94462 11.8334 2.14051 14.7062 2.14051 18.25C2.14051 18.9624 2.25382 19.6476 2.46297 20.2879C2.55138 20.5585 2.59559 20.6939 2.6101 20.7863C2.62524 20.8828 2.6279 20.937 2.62226 21.0345C2.61685 21.128 2.59348 21.2336 2.54673 21.4447L1.8335 24.6667L5.32743 24.1895C5.51814 24.1635 5.61349 24.1505 5.69676 24.151C5.78444 24.1516 5.83097 24.1564 5.91696 24.1735C5.99862 24.1898 6.12002 24.2326 6.36281 24.3183C7.00252 24.5441 7.68912 24.6667 8.40367 24.6667Z" stroke="#267CCC" stroke-width="2" stroke-linecap="round" stroke-linejoin="round"/>
</svg>
