<svg width="43" height="41" viewBox="0 0 43 41" fill="none" xmlns="http://www.w3.org/2000/svg">
<path d="M21.2227 1.20898C21.3251 0.962599 21.6749 0.962594 21.7773 1.20898L26.7354 13.1309C27.0378 13.8579 27.7219 14.355 28.5068 14.418L41.3779 15.4492C41.6436 15.4708 41.7514 15.803 41.5488 15.9766L31.7422 24.376C31.1443 24.8882 30.8838 25.6921 31.0664 26.458L34.0615 39.0176C34.1234 39.277 33.8419 39.4824 33.6143 39.3438L22.5947 32.6133C21.9227 32.2028 21.0773 32.2028 20.4053 32.6133L9.38574 39.3438C9.15808 39.4824 8.87659 39.277 8.93848 39.0176L11.9336 26.458C12.1162 25.6921 11.8557 24.8882 11.2578 24.376L1.45117 15.9766C1.24862 15.8031 1.35636 15.4708 1.62207 15.4492L14.4932 14.418C15.2781 14.355 15.9622 13.8579 16.2646 13.1309L21.2227 1.20898Z" stroke="#8897A5" stroke-width="1.8"/>
</svg>
