<svg width="49" height="48" viewBox="0 0 49 48" fill="none" xmlns="http://www.w3.org/2000/svg">
<g clip-path="url(#clip0_28745_65635)">
<path d="M23.393 3.86313C23.8029 2.87758 25.199 2.87758 25.609 3.86313L30.5676 15.7851C30.7404 16.2006 31.1311 16.4844 31.5797 16.5204L44.4504 17.5522C45.5144 17.6375 45.9458 18.9654 45.1352 19.6598L35.329 28.0598C34.9873 28.3525 34.838 28.8118 34.9425 29.2496L37.9384 41.8092C38.1861 42.8475 37.0566 43.6681 36.1456 43.1117L25.1265 36.3813C24.7425 36.1467 24.2595 36.1467 23.8755 36.3813L12.8563 43.1117C11.9454 43.6681 10.8159 42.8475 11.0636 41.8092L14.0595 29.2496C14.1639 28.8118 14.0147 28.3525 13.6729 28.0598L3.86677 19.6598C3.05612 18.9654 3.48756 17.6375 4.55154 17.5522L17.4223 16.5204C17.8708 16.4844 18.2616 16.2006 18.4344 15.7851L23.393 3.86313Z" fill="#0B89ED"/>
</g>
<defs>
<clipPath id="clip0_28745_65635">
<rect width="48" height="48" fill="white" transform="translate(0.5)"/>
</clipPath>
</defs>
</svg>
